# xmcd
# Track frame offsets:
# 183
# 11683
# 26255
# 40488
# 58068
# 66990
# 77858
# 89460
# 99933
# 109140
# 121883
# 135933
# 151773
# 165558
# 177763
# 194565
#
# Disc length: 2836 seconds
# Revision: 0
# Processed by: cddbd v1.4PL0 Copyright (c) Steve Scherf et al.
# Submitted via: VisiTrax 2.9.5.180 - For more info visit www.synapsa.com
#
DISCID=c90b1210
DTITLE=Brendan Shine - Magic moments with Brendan Shine
DYEAR=1989
DGENRE=Irsk
TTITLE0=Magic moments
TTITLE1=And I love you so
TTITLE2=The old brown turf
TTITLE3=You are no angel
TTITLE4=I'll have a drink with you
TTITLE5=Catch a falling star
TTITLE6=Ave Maria
TTITLE7=Don't let the stars get in your eyes
TTITLE8=Dear hearst and gentle people
TTITLE9=Scarlett ribbons
TTITLE10=The winning dream
TTITLE11=For the good times
TTITLE12=Murphy's dancing pig
TTITLE13=Bould O'Donoghue
TTITLE14=The jolly farmer
TTITLE15=Manchester lady
EXTD=
EXTT0=
EXTT1=
EXTT2=
EXTT3=
EXTT4=
EXTT5=
EXTT6=
EXTT7=
EXTT8=
EXTT9=
EXTT10=
EXTT11=
EXTT12=
EXTT13=
EXTT14=
EXTT15=
PLAYORDER=
